<svg width="713" height="187" viewBox="0 0 713 187" fill="none" xmlns="http://www.w3.org/2000/svg">
<path d="M0.500004 41.279C0.500004 40.0103 1.05292 38.7148 2.2165 37.3882C3.38282 36.0584 5.14118 34.7236 7.48908 33.395C12.1845 30.738 19.1419 28.1589 28.1476 25.6935C46.1511 20.7649 72.2259 16.3209 104.474 12.5869C168.963 5.11965 258.068 0.499808 356.5 0.499816C454.932 0.499825 544.037 5.11968 608.526 12.5869C640.774 16.3209 666.849 20.765 684.852 25.6936C693.858 28.159 700.815 30.7381 705.511 33.3951C707.859 34.7236 709.617 36.0584 710.784 37.3882C711.947 38.7149 712.5 40.0104 712.5 41.2791C712.5 42.5478 711.947 43.8433 710.784 45.17C709.617 46.4998 707.859 47.8346 705.511 49.1631C700.815 51.8201 693.858 54.3992 684.852 56.8646C666.849 61.7932 640.774 66.2372 608.526 69.9712C544.037 77.4385 454.932 82.0583 356.5 82.0583C258.068 82.0583 168.963 77.4385 104.474 69.9712C72.2259 66.2372 46.1511 61.7932 28.1476 56.8645C19.1419 54.3991 12.1845 51.82 7.48908 49.1631C5.14118 47.8345 3.38282 46.4997 2.21649 45.1699C1.05292 43.8433 0.500003 42.5477 0.500004 41.279Z" stroke="black"/>
<path d="M0.500004 100.96C0.500004 99.6912 1.05292 98.3957 2.2165 97.0691C3.38282 95.7393 5.14118 94.4045 7.48908 93.0759C12.1845 90.419 19.1419 87.8398 28.1476 85.3745C46.1511 80.4458 72.2259 76.0018 104.474 72.2678C168.963 64.8006 258.068 60.1807 356.5 60.1807C454.932 60.1807 544.037 64.8006 608.526 72.2678C640.774 76.0019 666.849 80.4459 684.852 85.3745C693.858 87.8399 700.815 90.419 705.511 93.076C707.859 94.4045 709.617 95.7393 710.784 97.0691C711.947 98.3958 712.5 99.6913 712.5 100.96C712.5 102.229 711.947 103.524 710.784 104.851C709.617 106.181 707.859 107.515 705.511 108.844C700.815 111.501 693.858 114.08 684.852 116.545C666.849 121.474 640.774 125.918 608.526 129.652C544.037 137.119 454.932 141.739 356.5 141.739C258.068 141.739 168.963 137.119 104.474 129.652C72.2259 125.918 46.1511 121.474 28.1476 116.545C19.1419 114.08 12.1845 111.501 7.48908 108.844C5.14118 107.515 3.38282 106.181 2.21649 104.851C1.05292 103.524 0.500003 102.229 0.500004 100.96Z" stroke="black"/>
<path d="M0.500004 71.1196C0.500004 69.8509 1.05292 68.5554 2.2165 67.2287C3.38282 65.8989 5.14118 64.5641 7.48908 63.2356C12.1845 60.5786 19.1419 57.9995 28.1476 55.5341C46.1511 50.6055 72.2259 46.1615 104.474 42.4275C168.963 34.9602 258.068 30.3404 356.5 30.3404C454.932 30.3404 544.037 34.9603 608.526 42.4275C640.774 46.1615 666.849 50.6055 684.852 55.5342C693.858 57.9996 700.815 60.5787 705.511 63.2356C707.859 64.5642 709.617 65.899 710.784 67.2288C711.947 68.5554 712.5 69.851 712.5 71.1197C712.5 72.3884 711.947 73.6839 710.784 75.0105C709.617 76.3403 707.859 77.6752 705.511 79.0037C700.815 81.6607 693.858 84.2398 684.852 86.7052C666.849 91.6338 640.774 96.0778 608.526 99.8118C544.037 107.279 454.932 111.899 356.5 111.899C258.068 111.899 168.963 107.279 104.474 99.8118C72.2259 96.0778 46.1511 91.6337 28.1476 86.7051C19.1419 84.2397 12.1845 81.6606 7.48908 79.0037C5.14118 77.6751 3.38282 76.3403 2.21649 75.0105C1.05292 73.6839 0.500003 72.3883 0.500004 71.1196Z" stroke="black"/>
<path d="M0.500004 130.801C0.500004 129.532 1.05292 128.236 2.2165 126.91C3.38282 125.58 5.14118 124.245 7.48908 122.916C12.1845 120.26 19.1419 117.68 28.1476 115.215C46.1511 110.286 72.2259 105.842 104.474 102.108C168.963 94.6411 258.068 90.0213 356.5 90.0213C454.932 90.0213 544.037 94.6412 608.526 102.108C640.774 105.842 666.849 110.286 684.852 115.215C693.858 117.68 700.815 120.26 705.511 122.917C707.859 124.245 709.617 125.58 710.784 126.91C711.947 128.236 712.5 129.532 712.5 130.801C712.5 132.069 711.947 133.365 710.784 134.691C709.617 136.021 707.859 137.356 705.511 138.685C700.815 141.342 693.858 143.921 684.852 146.386C666.849 151.315 640.774 155.759 608.526 159.493C544.037 166.96 454.932 171.58 356.5 171.58C258.068 171.58 168.963 166.96 104.474 159.493C72.2259 155.759 46.1511 151.315 28.1476 146.386C19.1419 143.921 12.1845 141.342 7.48908 138.685C5.14118 137.356 3.38282 136.021 2.21649 134.691C1.05292 133.365 0.500003 132.069 0.500004 130.801Z" stroke="black"/>
<path d="M0.500004 56.1994C0.500004 54.9308 1.05292 53.6352 2.2165 52.3086C3.38282 50.9788 5.14118 49.644 7.48908 48.3154C12.1845 45.6585 19.1419 43.0793 28.1476 40.614C46.1511 35.6853 72.2259 31.2413 104.474 27.5073C168.963 20.0401 258.068 15.4202 356.5 15.4202C454.932 15.4202 544.037 20.0401 608.526 27.5073C640.774 31.2414 666.849 35.6854 684.852 40.614C693.858 43.0794 700.815 45.6585 705.511 48.3155C707.859 49.644 709.617 50.9788 710.784 52.3086C711.947 53.6353 712.5 54.9308 712.5 56.1995C712.5 57.4682 711.947 58.7637 710.784 60.0904C709.617 61.4202 707.859 62.755 705.511 64.0836C700.815 66.7405 693.858 69.3196 684.852 71.785C666.849 76.7136 640.774 81.1576 608.526 84.8917C544.037 92.3589 454.932 96.9787 356.5 96.9787C258.068 96.9787 168.963 92.3589 104.474 84.8916C72.2259 81.1576 46.1511 76.7136 28.1476 71.7849C19.1419 69.3196 12.1845 66.7404 7.48908 64.0835C5.14118 62.7549 3.38282 61.4201 2.21649 60.0903C1.05292 58.7637 0.500003 57.4681 0.500004 56.1994Z" stroke="black"/>
<path d="M0.500004 115.88C0.500004 114.612 1.05292 113.316 2.2165 111.989C3.38282 110.66 5.14118 109.325 7.48908 107.996C12.1845 105.339 19.1419 102.76 28.1476 100.295C46.1511 95.3662 72.2259 90.9222 104.474 87.1882C168.963 79.721 258.068 75.1011 356.5 75.1011C454.932 75.1011 544.037 79.721 608.526 87.1883C640.774 90.9223 666.849 95.3663 684.852 100.295C693.858 102.76 700.815 105.339 705.511 107.996C707.859 109.325 709.617 110.66 710.784 111.99C711.947 113.316 712.5 114.612 712.5 115.88C712.5 117.149 711.947 118.445 710.784 119.771C709.617 121.101 707.859 122.436 705.511 123.764C700.815 126.421 693.858 129.001 684.852 131.466C666.849 136.395 640.774 140.839 608.526 144.573C544.037 152.04 454.932 156.66 356.5 156.66C258.068 156.66 168.963 152.04 104.474 144.573C72.2259 140.839 46.1511 136.394 28.1476 131.466C19.1419 129 12.1845 126.421 7.48908 123.764C5.14118 122.436 3.38282 121.101 2.21649 119.771C1.05292 118.445 0.500003 117.149 0.500004 115.88Z" stroke="black"/>
<path d="M0.500004 86.0398C0.500004 84.7711 1.05292 83.4755 2.2165 82.1489C3.38282 80.8191 5.14118 79.4843 7.48908 78.1557C12.1845 75.4988 19.1419 72.9197 28.1476 70.4543C46.1511 65.5257 72.2259 61.0816 104.474 57.3476C168.963 49.8804 258.068 45.2605 356.5 45.2606C454.932 45.2606 544.037 49.8804 608.526 57.3477C640.774 61.0817 666.849 65.5257 684.852 70.4543C693.858 72.9197 700.815 75.4989 705.511 78.1558C707.859 79.4844 709.617 80.8192 710.784 82.149C711.947 83.4756 712.5 84.7711 712.5 86.0398C712.5 87.3085 711.947 88.6041 710.784 89.9307C709.617 91.2605 707.859 92.5953 705.511 93.9239C700.815 96.5808 693.858 99.1599 684.852 101.625C666.849 106.554 640.774 110.998 608.526 114.732C544.037 122.199 454.932 126.819 356.5 126.819C258.068 126.819 168.963 122.199 104.474 114.732C72.2259 110.998 46.1511 106.554 28.1476 101.625C19.1419 99.1599 12.1845 96.5808 7.48908 93.9238C5.14118 92.5953 3.38282 91.2605 2.21649 89.9307C1.05292 88.604 0.500003 87.3085 0.500004 86.0398Z" stroke="black"/>
<path d="M0.500004 145.721C0.500004 144.452 1.05292 143.156 2.2165 141.83C3.38282 140.5 5.14118 139.165 7.48908 137.837C12.1845 135.18 19.1419 132.601 28.1476 130.135C46.1511 125.207 72.2259 120.763 104.474 117.029C168.963 109.561 258.068 104.941 356.5 104.941C454.932 104.941 544.037 109.561 608.526 117.029C640.774 120.763 666.849 125.207 684.852 130.135C693.858 132.601 700.815 135.18 705.511 137.837C707.859 139.165 709.617 140.5 710.784 141.83C711.947 143.157 712.5 144.452 712.5 145.721C712.5 146.989 711.947 148.285 710.784 149.612C709.617 150.941 707.859 152.276 705.511 153.605C700.815 156.262 693.858 158.841 684.852 161.306C666.849 166.235 640.774 170.679 608.526 174.413C544.037 181.88 454.932 186.5 356.5 186.5C258.068 186.5 168.963 181.88 104.474 174.413C72.2259 170.679 46.1511 166.235 28.1476 161.306C19.1419 158.841 12.1845 156.262 7.48908 153.605C5.14118 152.276 3.38282 150.941 2.21649 149.612C1.05292 148.285 0.500003 146.989 0.500004 145.721Z" stroke="black"/>
</svg>
